<?xml version="1.0" standalone="no"?>
<!DOCTYPE svg PUBLIC "-//W3C//DTD SVG 20010904//EN"
 "http://www.w3.org/TR/2001/REC-SVG-20010904/DTD/svg10.dtd">
<svg version="1.0" xmlns="http://www.w3.org/2000/svg"
 width="260.000000pt" height="280.000000pt" viewBox="0 0 260.000000 280.000000"
 preserveAspectRatio="xMidYMid meet">

<g transform="translate(0.000000,280.000000) scale(0.100000,-0.100000)"
fill="#000000" stroke="none">
<path d="M1930 2720 l0 -80 245 0 245 0 0 80 0 80 -245 0 -245 0 0 -80z m50
-12 c0 -10 2 -10 8 -1 5 8 45 12 127 12 66 -1 123 -2 126 -5 15 -9 -3 -50 -22
-50 -10 0 -19 4 -19 9 0 5 -6 4 -14 -2 -17 -15 -46 -4 -47 18 0 10 -4 7 -11
-9 -11 -25 -11 -25 -15 -2 -4 22 -43 33 -43 11 0 -6 7 -9 15 -5 8 3 15 1 15
-4 0 -16 -21 -22 -35 -10 -11 9 -15 9 -15 1 0 -6 -9 -11 -20 -11 -14 0 -20 7
-21 23 -1 16 -2 18 -6 5 -6 -22 -29 -23 -37 -2 -9 23 -7 34 4 34 6 0 10 -6 10
-12z m410 -14 c0 -26 -14 -39 -31 -28 -8 4 -7 9 2 15 11 7 11 9 -2 9 -9 0 -22
-7 -29 -16 -8 -8 -25 -14 -39 -12 -20 2 -27 9 -29 31 l-3 27 65 -1 c62 -1 66
-3 66 -25z"/>
<path d="M2160 2690 c0 -5 5 -10 10 -10 6 0 10 5 10 10 0 6 -4 10 -10 10 -5 0
-10 -4 -10 -10z"/>
<path d="M1196 2124 c-18 -18 -20 -32 -6 -54 7 -11 38 -16 122 -21 129 -7 201
-28 286 -85 121 -80 207 -207 237 -349 22 -104 22 -105 -25 -105 -24 0 -40 -5
-40 -12 0 -14 96 -162 115 -178 11 -9 27 8 74 79 34 50 61 95 61 101 0 5 -17
10 -38 10 l-39 0 -15 97 c-24 142 -77 244 -182 349 -128 127 -264 184 -442
184 -71 0 -96 -4 -108 -16z"/>
<path d="M1015 2070 c-37 -41 24 -97 63 -58 18 18 14 56 -7 68 -27 14 -35 13
-56 -10z"/>
<path d="M870 1970 c-30 -30 -13 -65 30 -65 43 0 60 35 30 65 -11 11 -24 20
-30 20 -5 0 -19 -9 -30 -20z"/>
<path d="M1206 1868 c-58 -33 -79 -76 -84 -169 -6 -101 -4 -106 47 -101 l41 4
0 73 c0 97 20 125 90 125 62 0 90 -30 90 -97 l0 -44 43 3 c41 3 42 4 45 42 5
56 -23 121 -65 153 -51 39 -150 44 -207 11z"/>
<path d="M749 1829 c-16 -30 3 -69 34 -69 29 0 47 17 47 45 0 45 -60 63 -81
24z"/>
<path d="M640 1601 c-33 -50 -60 -95 -60 -101 0 -5 17 -10 38 -10 l39 0 15
-97 c24 -142 77 -244 182 -349 127 -127 264 -184 445 -186 80 0 96 2 108 18
15 21 16 34 3 54 -7 11 -38 17 -127 21 -94 5 -131 12 -180 32 -195 80 -319
243 -348 460 l-6 47 39 0 c21 0 41 3 45 6 6 6 -105 178 -122 189 -6 3 -37 -35
-71 -84z"/>
<path d="M1068 1569 c-16 -9 -18 -30 -18 -200 l0 -189 25 -10 c40 -15 451 -8
467 8 10 10 13 59 13 193 0 167 -1 182 -19 195 -16 11 -65 14 -235 14 -128 0
-223 -5 -233 -11z m266 -115 c19 -18 21 -50 5 -60 -8 -4 -9 -26 -5 -65 l6 -59
-40 0 -40 0 6 59 c4 39 3 61 -5 65 -28 18 1 76 39 76 10 0 26 -7 34 -16z"/>
<path d="M1782 1228 c-7 -7 -12 -21 -12 -33 0 -12 5 -26 12 -33 27 -27 78 -7
78 29 0 39 -52 63 -78 37z"/>
<path d="M1672 1088 c-27 -27 -7 -78 30 -78 27 0 52 44 38 69 -12 23 -49 28
-68 9z"/>
<path d="M1522 988 c-21 -21 -14 -57 13 -70 22 -10 29 -9 47 10 19 18 20 25
10 47 -13 27 -49 34 -70 13z"/>
<path d="M603 95 c0 -27 2 -38 4 -22 2 15 8 27 13 27 5 0 11 -12 13 -27 4 -26
4 -26 6 5 1 22 -4 32 -13 32 -8 0 -17 8 -19 18 -3 9 -5 -5 -4 -33z"/>
<path d="M1102 95 c0 -27 2 -43 5 -35 3 8 13 24 22 35 15 18 15 19 -1 7 -14
-12 -17 -10 -21 15 -2 16 -4 6 -5 -22z"/>
<path d="M719 119 c-8 -20 4 -62 19 -65 7 -1 8 0 2 3 -16 7 -12 43 5 43 8 0
15 -9 15 -19 0 -11 4 -22 9 -25 5 -4 7 3 4 15 -3 12 -1 24 4 28 7 4 6 11 -3
19 -8 7 -14 8 -14 2 0 -14 -27 -13 -32 2 -3 8 -6 7 -9 -3z"/>
<path d="M949 118 c-2 -25 3 -53 11 -62 5 -5 6 1 3 14 -3 12 -1 25 4 29 7 4 6
11 -3 19 -11 10 -14 10 -15 0z"/>
<path d="M1500 125 c-1 -5 -1 -21 0 -34 1 -13 -4 -28 -12 -32 -9 -6 -3 -9 17
-9 17 0 25 4 18 8 -6 4 -13 23 -16 42 -2 19 -5 31 -7 25z"/>
<path d="M1544 115 c-4 -8 -1 -22 6 -30 6 -8 9 -19 5 -25 -3 -5 -4 -10 -1 -10
10 0 33 55 29 68 -6 17 -32 15 -39 -3z m28 -10 c0 -5 -5 -11 -11 -13 -6 -2
-11 4 -11 13 0 9 5 15 11 13 6 -2 11 -8 11 -13z"/>
<path d="M1606 122 c-2 -4 4 -8 15 -8 10 0 19 4 19 8 0 10 -27 10 -34 0z"/>
<path d="M1665 120 c-4 -6 1 -7 11 -3 13 5 16 3 11 -10 -3 -9 -2 -19 4 -22 14
-9 -1 -27 -18 -21 -8 3 -11 1 -8 -4 9 -14 32 -12 38 3 14 38 -19 88 -38 57z"/>
<path d="M1726 122 c-2 -4 4 -8 15 -8 10 0 19 4 19 8 0 10 -27 10 -34 0z"/>
<path d="M1780 111 c-17 -33 16 -82 35 -51 9 14 55 12 55 -2 0 -10 2 -10 8 0
5 7 6 27 4 44 l-5 32 -22 -26 c-21 -25 -22 -25 -31 -5 -13 29 -31 32 -44 8z
m35 -21 c0 -13 -5 -25 -11 -27 -14 -5 -25 22 -17 42 8 23 28 12 28 -15z m51
-7 c-10 -10 -19 5 -10 18 6 11 8 11 12 0 2 -7 1 -15 -2 -18z"/>
<path d="M1904 115 c-4 -8 -1 -22 6 -30 6 -8 9 -19 5 -25 -3 -5 -4 -10 -1 -10
10 0 33 55 29 68 -6 17 -32 15 -39 -3z m28 -10 c0 -5 -5 -11 -11 -13 -6 -2
-11 4 -11 13 0 9 5 15 11 13 6 -2 11 -8 11 -13z"/>
<path d="M1972 105 c-22 -28 -23 -30 -5 -34 10 -2 21 -8 24 -13 10 -15 16 14
10 47 l-6 29 -23 -29z m14 -22 c-10 -10 -19 5 -10 18 6 11 8 11 12 0 2 -7 1
-15 -2 -18z"/>
<path d="M2037 123 c22 -4 22 -6 8 -33 -22 -42 -17 -51 5 -10 25 46 25 50 -7
49 -24 -2 -25 -2 -6 -6z"/>
<path d="M550 93 c0 -10 4 -14 8 -8 4 6 11 13 16 18 5 4 2 7 -7 7 -10 0 -17
-8 -17 -17z"/>
<path d="M661 83 c-1 -27 3 -33 19 -33 16 0 20 6 19 33 -2 30 -2 30 -6 5 -6
-36 -20 -36 -26 0 -4 25 -4 25 -6 -5z"/>
<path d="M807 104 c-13 -13 -7 -24 14 -24 11 0 19 5 17 12 -5 14 -22 21 -31
12z"/>
<path d="M861 78 c2 -28 2 -29 6 -8 3 14 10 28 17 32 7 5 5 8 -6 8 -14 0 -18
-8 -17 -32z"/>
<path d="M900 93 c0 -10 4 -14 8 -8 4 6 11 13 16 18 5 4 2 7 -7 7 -10 0 -17
-8 -17 -17z"/>
<path d="M994 95 c-8 -21 2 -45 20 -45 19 0 29 29 15 46 -15 18 -28 18 -35 -1z
m31 -15 c0 -7 -6 -15 -12 -17 -8 -3 -13 4 -13 17 0 13 5 20 13 18 6 -3 12 -11
12 -18z"/>
<path d="M1054 95 c-8 -20 2 -45 18 -44 10 0 10 2 1 6 -7 2 -13 13 -13 23 0
10 6 21 13 23 9 4 9 6 -1 6 -7 1 -15 -6 -18 -14z"/>
<path d="M1194 95 c-8 -20 2 -45 18 -44 10 0 10 2 1 6 -7 2 -13 13 -13 23 0
10 6 21 13 23 9 4 9 6 -1 6 -7 1 -15 -6 -18 -14z"/>
<path d="M1245 100 c-3 -5 0 -7 8 -4 20 7 32 -15 18 -29 -9 -9 -14 -8 -22 3
-9 13 -10 13 -6 0 5 -21 33 -24 40 -5 13 32 -21 63 -38 35z"/>
<path d="M1301 77 c2 -31 2 -31 6 -4 2 15 8 27 13 27 5 0 11 -12 13 -27 l4
-28 2 28 c0 15 5 27 10 27 5 0 12 -12 14 -27 4 -27 4 -27 6 4 1 29 -1 31 -34
31 -33 0 -35 -2 -34 -31z"/>
<path d="M1617 82 c-24 -26 -21 -32 11 -31 16 1 20 3 10 6 -14 4 -16 8 -8 24
13 24 8 24 -13 1z"/>
<path d="M1737 82 c-24 -26 -21 -32 11 -31 16 1 20 3 10 6 -14 4 -16 8 -8 24
13 24 8 24 -13 1z"/>
<path d="M562 65 c-11 -12 -10 -15 3 -15 8 0 15 7 15 15 0 18 -2 18 -18 0z"/>
<path d="M912 65 c-11 -12 -10 -15 3 -15 8 0 15 7 15 15 0 18 -2 18 -18 0z"/>
<path d="M1120 71 c0 -5 5 -13 10 -16 6 -3 10 -2 10 4 0 5 -4 13 -10 16 -5 3
-10 2 -10 -4z"/>
<path d="M808 58 c5 -5 16 -8 23 -6 8 3 3 7 -10 11 -17 4 -21 3 -13 -5z"/>
</g>
</svg>
