<?xml version="1.0" standalone="no"?>
<!DOCTYPE svg PUBLIC "-//W3C//DTD SVG 20010904//EN"
 "http://www.w3.org/TR/2001/REC-SVG-20010904/DTD/svg10.dtd">
<svg version="1.0" xmlns="http://www.w3.org/2000/svg"
 width="626.000000pt" height="626.000000pt" viewBox="0 0 626.000000 626.000000"
 preserveAspectRatio="xMidYMid meet">

<g transform="translate(0.000000,626.000000) scale(0.100000,-0.100000)"
fill="#000000" stroke="none">
<path d="M2480 4823 c-87 -7 -213 -34 -292 -63 -103 -38 -185 -84 -295 -166
-183 -138 -339 -191 -595 -201 l-158 -6 0 -542 0 -542 123 -6 c191 -9 299 -43
482 -152 107 -64 211 -107 315 -131 61 -14 144 -17 452 -21 l377 -5 6 -46 c4
-26 13 -67 21 -91 8 -25 14 -46 14 -48 0 -2 -232 -3 -515 -3 -498 0 -515 -1
-525 -19 -16 -31 -14 -1342 3 -1364 11 -16 107 -17 1452 -15 l1440 3 3 684 c1
497 -1 688 -9 697 -9 12 -101 14 -505 14 -272 0 -494 2 -494 5 0 2 7 30 15 62
31 117 12 251 -48 352 -38 63 -122 143 -184 175 l-45 22 55 13 c161 36 252
214 181 354 -67 130 -260 422 -328 495 l-30 32 185 0 c101 0 201 5 221 10 185
52 250 276 121 420 -80 89 -41 85 -763 86 -349 0 -655 -1 -680 -3z m239 -126
c121 -79 171 -112 268 -175 147 -95 218 -148 215 -161 -1 -6 2 -10 7 -9 32 9
291 -288 275 -314 -4 -6 -2 -8 3 -5 13 8 106 -150 97 -165 -4 -6 -3 -8 4 -4 6
3 20 -10 33 -30 16 -26 19 -38 10 -43 -9 -6 -8 -11 4 -21 13 -11 15 -10 9 4
-12 33 6 15 27 -26 40 -79 6 -179 -76 -217 -47 -22 -123 -30 -95 -10 12 8 9 9
-10 5 -39 -8 -86 27 -128 95 -20 33 -58 93 -84 134 -49 75 -56 91 -38 80 16
-10 11 1 -7 16 -15 12 -16 12 -8 -1 14 -27 -10 2 -48 58 -39 55 -45 68 -25 56
7 -4 8 -3 4 5 -4 6 -11 9 -15 6 -5 -2 -35 26 -67 63 -32 37 -63 69 -68 71 -5
2 -16 11 -25 20 -19 18 -111 87 -156 116 -178 115 -373 105 -537 -28 -31 -25
-59 -43 -64 -39 -4 4 -4 2 0 -5 3 -7 -7 -34 -23 -60 -58 -94 -76 -231 -46
-347 8 -32 12 -62 9 -68 -4 -6 -3 -8 3 -5 6 4 18 -11 28 -33 10 -22 24 -45 32
-51 7 -6 13 -16 13 -22 0 -5 -10 3 -22 19 -29 38 -38 49 -38 43 0 -10 51 -74
54 -69 2 3 30 -20 62 -51 33 -30 80 -68 106 -83 97 -56 119 -59 543 -63 340
-3 394 -5 423 -20 44 -22 72 -71 74 -125 1 -65 -44 -140 -73 -122 -7 4 -9 3
-6 -3 19 -31 -50 -34 -639 -31 -579 4 -590 5 -674 27 -110 31 -153 50 -269
120 -163 98 -302 145 -472 158 l-79 6 0 452 0 453 118 7 c128 7 216 23 305 54
68 24 191 85 226 112 13 10 27 16 32 13 5 -3 8 -1 7 4 -7 23 163 130 287 182
93 39 239 66 375 68 72 2 77 0 139 -41z m1060 33 c68 -19 121 -90 121 -160 0
-78 -66 -167 -117 -157 -13 2 -23 0 -23 -4 0 -5 -100 -9 -222 -9 l-223 0 -35
31 c-19 17 -63 51 -98 76 -34 24 -60 49 -57 54 4 5 0 6 -8 4 -7 -3 -29 5 -48
19 -18 13 -54 37 -79 52 -25 15 -72 45 -105 66 l-60 38 460 0 c271 0 474 -4
494 -10z m-1099 -512 c53 -16 195 -113 273 -187 91 -86 133 -142 262 -347 58
-93 119 -180 135 -194 l28 -25 -371 3 c-394 3 -448 7 -533 46 -251 115 -327
452 -140 624 100 92 219 120 346 80z m863 -849 c238 -120 310 -424 152 -638
-51 -70 -140 -133 -219 -156 -27 -8 -83 -15 -123 -15 -208 0 -377 140 -422
348 -19 89 -35 82 187 82 216 0 267 8 327 54 81 62 110 200 62 298 -13 26 -20
48 -15 48 5 0 28 -10 51 -21z m-575 -642 c17 -23 50 -61 75 -84 l46 -42 -112
-3 -112 -3 -3 -62 -3 -63 511 0 510 0 0 65 0 65 -130 0 -131 0 54 53 c30 29
62 67 71 85 l17 32 499 0 500 0 0 -670 0 -670 -1420 0 -1420 0 0 670 0 670
510 0 509 0 29 -43z m266 -182 c63 -19 166 -19 239 0 40 10 108 15 217 15
l160 0 0 -30 0 -30 -475 0 -475 0 0 30 0 30 143 0 c97 0 158 -5 191 -15z"/>
<path d="M2920 4545 c0 -2 10 -10 23 -16 20 -11 21 -11 8 4 -13 16 -31 23 -31
12z"/>
<path d="M1558 4313 c7 -3 16 -2 19 1 4 3 -2 6 -13 5 -11 0 -14 -3 -6 -6z"/>
<path d="M2280 3525 c13 -14 26 -25 28 -25 3 0 -5 11 -18 25 -13 14 -26 25
-28 25 -3 0 5 -11 18 -25z"/>
<path d="M1840 3205 c14 -8 30 -14 35 -14 6 0 -1 6 -15 14 -14 8 -29 14 -35
14 -5 0 1 -6 15 -14z"/>
<path d="M3140 2349 c-41 -17 -90 -71 -101 -111 -35 -133 120 -251 231 -175
57 38 75 71 75 137 0 63 -16 95 -67 133 -30 23 -103 31 -138 16z m104 -111
c22 -32 20 -55 -9 -83 -29 -30 -58 -32 -85 -5 -24 24 -26 67 -3 92 23 26 78
24 97 -4z"/>
<path d="M3342 2017 l-302 -303 33 -32 33 -32 297 298 c163 163 297 302 297
308 0 6 -13 22 -28 37 l-28 27 -302 -303z"/>
<path d="M3481 1914 c-47 -42 -65 -89 -56 -145 13 -76 79 -129 161 -129 61 0
107 29 133 84 38 77 20 150 -49 201 -27 20 -46 25 -92 25 -52 0 -62 -3 -97
-36z m152 -86 c18 -24 18 -30 7 -57 -25 -62 -112 -48 -118 18 -7 69 69 96 111
39z"/>
</g>
</svg>
